<?xml version="1.0" standalone="no"?>
<!DOCTYPE svg PUBLIC "-//W3C//DTD SVG 20010904//EN"
 "http://www.w3.org/TR/2001/REC-SVG-20010904/DTD/svg10.dtd">

<svg xmlns="http://www.w3.org/2000/svg" version="1.0" width="2500.000000pt" height="2500.000000pt"
     viewBox="0 0 256.000000 256.000000" preserveAspectRatio="xMidYMid meet">
<metadata>Traildeer</metadata>
<g transform="translate(0.000000,256.000000) scale(0.100000,-0.100000)" fill="#14101D" stroke="none">
 <path d="M250 2531 c-24 -46 5 -193 61 -302 44 -87 163 -205 249 -248 117 -57 147 -61 461 -61 316 0 323 1 303 58 l-9 27 -195 5 c-189 5 -197 6 -253 33 -98 49 -166 168 -154 273 5 51 -13 84 -47 84 -13 0 -30 -7 -37 -16 -19 -24 -16 -157 5 -213 l16 -44 -20 18 c-12 10 -36 51 -56 89 -27 57 -36 87 -41 154 -5 68 -9 85 -26 93 -31 17 -63 -3 -70 -45 -9 -57 11 -166 44 -236 l30 -65 -40 39 c-70 68 -131 211 -131 307 0 21 -7 45 -16 53 -21 22 -61 20 -74 -3z"/>
 <path d="M618 1860 c-46 -24 -75 -61 -88 -112 -14 -49 -5 -76 26 -84 37 -9 52 1 63 44 13 46 34 67 79 77 47 10 66 50 36 79 -21 21 -71 19 -116 -4z"/>
 <path d="M776 1748 c-99 -100 -139 -156 -172 -245 -50 -132 -40 -288 27 -412 16 -31 70 -103 120 -161 133 -154 162 -200 167 -263 3 -45 -9 -90 -88 -335 -89 -273 -91 -284 -75 -308 38 -58 47 -46 251 366 176 357 192 385 221 393 17 5 85 5 158 1 l128 -9 104 -144 c62 -86 103 -153 103 -167 0 -13 -41 -109 -90 -212 -97 -199 -102 -222 -54 -244 20 -9 28 -9 38 3 8 8 71 121 142 253 124 232 127 239 114 270 -32 77 -27 96 46 182 127 149 159 216 152 319 -5 83 -40 134 -116 172 l-54 27 -377 3 c-207 2 -391 6 -409 9 -69 11 -141 106 -142 187 0 54 21 96 68 139 47 43 89 53 171 44 l59 -7 26 45 c14 24 26 51 26 59 0 20 -65 71 -121 97 -37 17 -66 20 -192 20 l-148 0 -83 -82z"/>
 <path d="M1980 1340 c-18 -33 -3 -58 41 -70 46 -13 79 -45 79 -76 0 -51 58 -71 85 -30 32 48 -21 153 -92 182 -49 21 -100 18 -113 -6z"/>
 <path d="M475 919 c-55 -22 -105 -46 -112 -52 -14 -13 -46 -337 -41 -408 3 -41 5 -44 34 -47 18 -2 36 3 43 11 6 8 30 86 52 173 24 98 46 164 56 172 11 8 55 12 130 12 76 0 113 4 113 11 0 15 -150 169 -164 168 -6 0 -56 -18 -111 -40z"/>
 <path d="M2011 688 c-60 -71 -70 -88 -52 -88 21 0 120 -103 138 -142 11 -24 41 -128 67 -233 29 -115 55 -197 66 -209 24 -24 67 -15 75 17 9 35 -72 472 -96 519 -11 22 -47 78 -79 124 l-58 84 -61 -72z"/>
</g>
</svg>
