<?xml version="1.0" standalone="no"?>
<!DOCTYPE svg PUBLIC "-//W3C//DTD SVG 20010904//EN"
 "http://www.w3.org/TR/2001/REC-SVG-20010904/DTD/svg10.dtd">
<svg version="1.0" xmlns="http://www.w3.org/2000/svg"
 width="512.000000pt" height="512.000000pt" viewBox="0 0 512.000000 512.000000"
 preserveAspectRatio="xMidYMid meet">
<metadata>
Created by potrace 1.11, written by Peter Selinger 2001-2013
</metadata>
<g transform="translate(0.000000,512.000000) scale(0.100000,-0.100000)"
fill="#000000" stroke="none">
<path d="M530 5087 c-37 -18 -51 -69 -45 -159 14 -205 98 -438 216 -594 65
-88 204 -227 293 -293 128 -96 297 -167 446 -186 130 -16 832 -23 1050 -11
167 10 184 22 157 110 l-18 56 -87 1 c-200 2 -627 17 -667 25 -159 27 -310
145 -390 303 -44 89 -58 148 -60 266 -1 61 -7 121 -13 135 -20 50 -63 68 -118
49 -47 -15 -59 -54 -59 -184 0 -136 8 -195 39 -280 13 -36 21 -65 17 -65 -25
0 -123 154 -170 266 -38 94 -48 137 -57 253 -8 107 -11 127 -23 150 -25 45
-94 55 -129 19 -49 -54 -56 -150 -22 -319 23 -117 44 -177 94 -279 19 -38 32
-70 29 -70 -3 0 -32 28 -65 61 -65 67 -138 172 -170 247 -11 26 -26 61 -33 77
-22 48 -55 176 -60 230 -15 155 -21 170 -70 191 -42 17 -53 17 -85 1z"/>
<path d="M1309 3746 c-131 -35 -232 -145 -257 -282 -13 -77 2 -115 55 -134 69
-23 91 -9 130 84 39 94 61 120 122 142 116 40 150 75 130 132 -20 58 -91 81
-180 58z"/>
<path d="M1566 3508 c-219 -223 -297 -334 -361 -510 -29 -80 -34 -96 -42 -148
-2 -19 -8 -51 -12 -70 -8 -42 -7 -218 3 -275 33 -196 88 -317 225 -495 54 -71
161 -201 181 -220 3 -3 29 -34 58 -70 29 -36 60 -73 68 -83 97 -119 152 -242
149 -332 -3 -88 -43 -232 -186 -670 -44 -137 -83 -257 -85 -265 -2 -8 -15 -53
-29 -100 -15 -47 -31 -109 -36 -138 -10 -51 -9 -56 17 -93 35 -51 63 -51 101
-1 62 80 85 123 420 792 162 322 304 602 316 623 33 59 79 107 107 113 45 9
320 3 465 -11 22 -2 54 -4 70 -4 26 -1 38 -13 85 -79 30 -42 57 -79 60 -82 12
-10 169 -238 222 -320 76 -119 82 -137 64 -185 -25 -72 -103 -247 -176 -400
-181 -375 -191 -423 -103 -466 56 -27 66 -23 115 59 69 112 318 572 408 752
89 177 89 174 56 273 -43 130 -31 165 127 353 111 133 185 240 228 329 47 98
53 125 52 243 -1 201 -64 299 -252 396 l-86 44 -345 2 c-450 3 -842 8 -1061
14 -157 4 -182 7 -225 28 -108 50 -211 205 -221 330 -7 84 15 157 68 228 112
148 216 183 460 155 l67 -7 45 83 c64 117 65 127 25 170 -73 79 -212 161 -298
176 -14 2 -153 7 -309 10 l-285 5 -150 -154z"/>
<path d="M3989 2704 c-33 -17 -52 -65 -39 -99 11 -30 38 -47 113 -75 73 -27
124 -77 132 -127 10 -61 34 -101 70 -113 43 -14 79 0 106 42 57 91 -43 290
-178 353 -66 32 -163 41 -204 19z"/>
<path d="M1060 1880 c-122 -46 -238 -95 -295 -125 -44 -23 -58 -55 -70 -167
-4 -34 -9 -74 -11 -88 -2 -14 -6 -56 -10 -95 -3 -38 -8 -78 -10 -88 -17 -94
-25 -460 -9 -476 17 -17 76 -22 111 -11 31 10 36 18 59 91 14 44 43 148 65
232 57 215 68 254 97 324 31 78 36 79 338 84 77 1 148 6 158 11 26 13 6 40
-143 193 -78 80 -161 155 -171 155 -2 0 -51 -18 -109 -40z"/>
<path d="M4053 1413 c-95 -114 -153 -191 -153 -203 0 -4 11 -11 25 -14 33 -8
190 -164 238 -236 21 -31 48 -92 62 -140 14 -47 35 -115 46 -152 11 -37 22
-80 25 -95 8 -49 93 -355 119 -433 15 -41 29 -83 32 -92 6 -21 64 -49 90 -44
34 7 63 30 69 53 6 21 -3 160 -10 172 -2 3 -7 33 -10 66 -4 33 -9 67 -11 75
-2 8 -6 33 -10 55 -6 44 -12 76 -20 115 -3 14 -7 39 -10 55 -3 17 -8 41 -10
55 -3 14 -7 34 -9 45 -39 205 -82 371 -109 425 -22 42 -117 187 -221 338 l-43
62 -90 -107z"/>
</g>
</svg>
